<?xml version="1.0" standalone="no"?><!DOCTYPE svg PUBLIC "-//W3C//DTD SVG 1.1//EN" "http://www.w3.org/Graphics/SVG/1.1/DTD/svg11.dtd"><svg t="1543395850203" class="icon" style="" viewBox="0 0 1024 1024" version="1.1" xmlns="http://www.w3.org/2000/svg" p-id="5266" xmlns:xlink="http://www.w3.org/1999/xlink" width="200" height="200"><defs><style type="text/css"></style></defs><path d="M624.623743 155.884989l-30.707356 0.180631c-184.605398 11.741048-314.47945 152.633621-314.479449 324.052919 0 179.186453 151.188569 324.775445 337.41965 324.775446 186.231081 0 331.097548-145.769624 331.097549-324.775446 0-172.503087-138.724996-313.937555-323.330394-324.23355z" fill="#d1f1ec" p-id="5267"></path><path d="M472.351385 553.274299c-2.167578 2.167578-2.709473 3.251367-5.599577 3.251367s-5.780208-1.083789-7.947786-3.251367c-4.335156-4.335156-6.683366-11.560416-2.34821-15.895573l95.554066-97.902275V219.64791c0-6.141471 5.057682-11.199153 11.199154-11.199154 6.141471 0 11.199153 5.057682 11.199153 11.199154v229.402011l-102.0568 104.224378zM837.407656 432.973717c-6.141471 0-11.199153 5.057682-11.199154 11.199153 0 6.141471 5.057682 11.199153 11.199154 11.199153h44.977244c6.141471 0 11.199153-5.057682 11.199154-11.199153 0-6.141471-5.057682-11.199153-11.199154-11.199153h-44.977244zM298.222614 455.552655c6.141471 0 11.199153-5.057682 11.199154-11.199154 0-6.141471-5.057682-11.199153-11.199154-11.199153h-44.977244c-6.141471 0-11.199153 5.057682-11.199154 11.199153 0 6.141471 5.057682 11.199153 11.199154 11.199154h44.977244zM574.408185 713.855706c0-6.141471-5.057682-11.199153-11.199153-11.199153-6.141471 0-11.199153 5.057682-11.199154 11.199153v44.977245c0 6.141471 5.057682 11.199153 11.199154 11.199153 6.141471 0 11.199153-5.057682 11.199153-11.199153v-44.977245zM563.209032 185.869818c6.141471 0 11.199153-5.057682 11.199153-11.199153V129.69342c0-6.141471-5.057682-11.199153-11.199153-11.199153-6.141471 0-11.199153 5.057682-11.199154 11.199153v44.977245c0 6.141471 5.057682 11.199153 11.199154 11.199153z" fill="#18B8A1" p-id="5268"></path><path d="M296.777562 213.68707c-21.314518 21.495149-39.197037 46.061034-52.383136 73.336391-23.662727 48.589875-36.126301 102.0568-36.126301 157.149409 0 198.152761 161.123302 359.276063 359.095431 359.456694 197.430235 0.180632 358.9148-160.220145 359.998589-357.469747 1.083789-198.875287-160.400776-361.082378-358.9148-361.443641-6.322103 0-11.921679 5.057682-11.741048 11.379784 0.180632 6.141471 5.057682 11.018522 11.199154 11.018522 185.869818 0 336.877756 151.188569 336.877756 337.058388 0 185.869818-151.549832 337.058388-337.239019 337.058388-185.869818 0-337.600282-151.188569-337.600283-337.058388 0-33.416828 4.515788-66.291762 13.727995-97.541013 13.547363-46.061034 38.293879-88.148174 71.530076-122.829423l23.662727-24.746516v98.805433c0 5.96084 4.515788 11.199153 10.476627 11.560417 6.502734 0.361263 11.921679-4.696419 11.921679-11.199154V179.908979c0-3.431999-0.903158-6.863997-2.709472-9.934733l-0.180632-0.180632c-2.34821-3.973893-6.683366-6.502734-11.199153-6.502734H231.208326c-5.96084 0-11.199153 4.515788-11.560416 10.476627-0.361263 6.502734 4.696419 11.921679 11.199153 11.92168h93.747751l-27.817252 27.997883z" fill="#18B8A1" p-id="5269"></path></svg>